# xmcd
#
# Track frame offsets: 
#        150
#        14190
#        27762
#        42847
#        57428
#        75477
#        86181
#        104527
#        121811
#        138550
#        150640
#        162465
#        174778
#        187712
#        203390
#        221736
#        237514
#        257762
#        269168
#        281933
#
# Disc length: 3940 seconds
#
# Revision: 0
# Processed by: cddbd v1.5.1PL2 Copyright (c) Steve Scherf et al.
# Submitted via: ExactAudioCopy v0.95b3
#
DISCID=200f6214
DTITLE=Various Artist - 20 Cumbias De Oro
DYEAR=1999
DGENRE=Latin
TTITLE0=Los Inmortales - La Pollera Colora
TTITLE1=Los Corraleros De Majagual - Cumbiamberita
TTITLE2=Gabriel Romero Y Su Orquesta - Violencia
TTITLE3=Lisandro Meza Y Su Orquesta - Cumbia Negra
TTITLE4=La Sonora Dinamita - Maruja
TTITLE5=Clímaco Sarmiento Y Su Orquesta - Cumbia Sabrosa
TTITLE6=Rodolfo Y Su Tipica Ra7 - Tabaco Y Ron
TTITLE7=Adolfo Echeverria Y Su Orquesta - Amaneciendo
TTITLE8=The Latin Brothers - Dale Al Bombo
TTITLE9=Lisandro Meza Y Su Conjunto - Sal Y Agua
TTITLE10=La Sonora Dinamita - Se Me Perdio La Cadenita
TTITLE11=Joe Rodriguez Y Su Grupo Latino - Morena De Quince Años
TTITLE12=Los Warahuaco - El Pescador De Baru
TTITLE13=Alfredo Gutierrez Y Su Conjunto - Dos Mujeres
TTITLE14=Pastor Lopez Y Su Combo - La Cumbia
TTITLE15=Los Nemus Del Pacifico - Cosecha De Amores
TTITLE16=Armando Hernandez Y Su Conjunto - La Zenaida
TTITLE17=Rodolfo Con Los Hispanos - Me Voy Pa'macondo
TTITLE18=La Sonora Del Caribe - Noche De Estrellas
TTITLE19=Saoko Y La Propiedad - Si Dios Fuera Negro
EXTD=
EXTT0=
EXTT1=
EXTT2=
EXTT3=
EXTT4=
EXTT5=
EXTT6=
EXTT7=
EXTT8=
EXTT9=
EXTT10=
EXTT11=
EXTT12=
EXTT13=
EXTT14=
EXTT15=
EXTT16=
EXTT17=
EXTT18=
EXTT19=
PLAYORDER=
